<svg xmlns="http://www.w3.org/2000/svg" width="180" height="40"><title>Artboard 3</title><desc>Created with Sketch.</desc><g fill="none"><g fill="#fff"><path d="M60 22.7c0 .8-.17 1.5-.5 2.1-.3.6-.74 1.1-1.3 1.5-.55.4-1.2.72-1.92.93-.73.2-1.5.32-2.34.32h-9.06V8.8h10.04c.65 0 1.24.14 1.77.42.5.28.96.65 1.33 1.1.37.45.66.96.86 1.53.2.57.3 1.15.3 1.73 0 .9-.24 1.77-.7 2.57-.45.8-1.12 1.4-2 1.78 1.07.32 1.92.9 2.55 1.7.62.83.94 1.85.94 3.08zm-3.68-.67c0-.34-.06-.66-.18-.97-.1-.3-.26-.57-.46-.8-.2-.23-.42-.4-.68-.54-.27-.13-.56-.2-.88-.2h-5.6v4.94h5.42c.33 0 .65-.06.94-.2.3-.1.54-.28.75-.5.2-.22.38-.48.5-.78.12-.3.2-.62.2-.95zm-7.8-10.12v4.74h4.86c.62 0 1.14-.2 1.58-.63.43-.42.64-1 .64-1.74 0-.72-.2-1.3-.6-1.7-.4-.43-.88-.65-1.46-.65h-5zm16 15.9c-.66 0-1.28-.1-1.86-.32-.58-.22-1.1-.53-1.5-.92-.43-.4-.76-.86-1-1.4-.24-.52-.36-1.1-.36-1.73 0-.65.15-1.26.44-1.8.3-.57.7-1.04 1.2-1.42.53-.38 1.15-.7 1.88-.9.72-.23 1.5-.34 2.37-.34.6 0 1.2.06 1.8.16.6.1 1.12.26 1.57.45v-.8c0-.9-.26-1.6-.78-2.1-.53-.5-1.3-.74-2.32-.74-.74 0-1.46.13-2.16.4-.7.26-1.43.65-2.17 1.16l-1.08-2.26c1.78-1.18 3.7-1.77 5.76-1.77 2 0 3.53.5 4.63 1.47s1.65 2.4 1.65 4.24v4.3c0 .37.08.63.2.8.14.15.36.24.66.26v3c-.6.13-1.12.2-1.56.2-.67 0-1.2-.16-1.55-.46-.36-.3-.58-.7-.67-1.2l-.08-.75c-.62.8-1.36 1.42-2.24 1.85-.88.42-1.83.63-2.83.63zm1-2.58c.6 0 1.18-.1 1.72-.3.53-.22.95-.5 1.25-.86.38-.3.57-.63.57-1v-1.6c-.42-.14-.88-.27-1.37-.37-.5-.1-.97-.15-1.43-.15-.9 0-1.66.2-2.24.62-.58.4-.87.93-.87 1.57 0 .6.23 1.1.68 1.5.46.4 1.03.58 1.7.58zm15.07 2.6c-1.12 0-2.12-.2-3.02-.58-.9-.38-1.66-.9-2.3-1.54-.63-.65-1.12-1.4-1.46-2.27-.35-.86-.52-1.77-.52-2.72 0-.98.17-1.9.5-2.78.34-.87.82-1.64 1.46-2.3.63-.66 1.4-1.18 2.3-1.57.9-.38 1.93-.58 3.06-.58 1.12 0 2.13.2 3.02.58.9.4 1.65.9 2.27 1.56.64.66 1.1 1.42 1.44 2.28.32.86.48 1.76.48 2.7 0 .22 0 .44 0 .66-.02.2-.04.38-.07.52h-10.7c.05.55.2 1.03.4 1.46.2.42.48.78.82 1.08.33.3.7.53 1.13.7.42.14.86.22 1.32.22.7 0 1.37-.17 2-.5.62-.35 1.05-.8 1.28-1.37l3.03.84c-.5 1.05-1.32 1.92-2.44 2.6-1.13.67-2.46 1-4 1zm3.58-8.35c-.1-1.04-.47-1.87-1.15-2.5-.68-.62-1.5-.94-2.47-.94-.47 0-.92.1-1.33.25-.4.17-.78.4-1.1.7-.3.3-.57.66-.78 1.1-.2.4-.32.88-.35 1.4h7.18zm4.04-11.2h3.54V23.1c0 .52.13.92.37 1.2.25.28.6.42 1.06.42.2 0 .43-.03.7-.1.24-.07.5-.16.7-.27l.5 2.7c-.5.22-1.04.4-1.67.52-.64.13-1.2.2-1.72.2-1.1 0-1.96-.3-2.56-.9-.6-.6-.92-1.43-.92-2.52V8.27zm12.4 19.54c-.96 0-1.84-.17-2.65-.54-.8-.37-1.5-.88-2.1-1.53-.57-.66-1.02-1.42-1.35-2.3-.32-.86-.48-1.8-.48-2.8 0-1 .15-1.94.46-2.8.3-.86.73-1.62 1.28-2.27.55-.65 1.2-1.16 1.95-1.53.76-.37 1.6-.56 2.5-.56 1 0 1.93.25 2.75.74.8.5 1.45 1.15 1.9 1.94V8.27h3.55v15.2c0 .38.06.64.18.8.14.16.35.25.65.27v3c-.62.13-1.12.2-1.5.2-.64 0-1.16-.17-1.57-.48-.4-.32-.63-.73-.68-1.24l-.08-.88c-.5.88-1.2 1.55-2.08 2-.87.45-1.78.67-2.73.67zm.92-3c.33 0 .67-.06 1.03-.17.35-.12.67-.28.97-.5.3-.2.57-.45.8-.73.25-.28.43-.6.55-.92v-3.3c-.15-.4-.35-.75-.6-1.07-.26-.32-.55-.6-.88-.84-.32-.24-.66-.43-1.03-.57-.37-.15-.72-.22-1.08-.22-.52 0-1 .12-1.46.35-.45.22-.83.54-1.15.93-.3.4-.55.85-.73 1.36-.17.5-.26 1.04-.26 1.6 0 .57.1 1.1.3 1.6.2.5.46.92.8 1.3.32.36.72.65 1.2.86.46.22.97.32 1.54.32zm12.86 3c-1.43 0-2.5-.45-3.25-1.36-.74-.92-1.1-2.27-1.1-4.07V13.7h3.53v7.9c0 2.14.77 3.2 2.3 3.2.68 0 1.35-.2 2-.62.63-.4 1.16-1.04 1.56-1.9v-8.57h3.54v9.78c0 .37.07.63.2.8.13.15.35.24.65.26v3c-.36.08-.65.12-.9.14-.23.02-.44.03-.63.03-.64 0-1.15-.14-1.55-.43-.4-.3-.63-.7-.7-1.2l-.08-1.1c-.6.94-1.4 1.65-2.38 2.13-.97.47-2.04.7-3.2.7zm23.2-.25h-3.52v-7.77c0-1.1-.2-1.92-.6-2.43-.37-.5-.9-.76-1.6-.76-.35 0-.7.06-1.08.2-.37.14-.72.34-1.04.6-.33.25-.62.55-.9.9-.25.36-.44.74-.57 1.17v8.08h-3.55V13.7h3.2v2.57c.5-.88 1.25-1.57 2.22-2.06.97-.48 2.06-.73 3.27-.73.86 0 1.57.16 2.1.48.56.3.98.73 1.28 1.24.3.5.5 1.08.62 1.73.12.65.17 1.3.17 1.98v8.65zm6.78.08c-.94 0-1.78-.2-2.54-.56-.75-.37-1.4-.87-1.97-1.52-.55-.64-.98-1.38-1.28-2.23-.3-.84-.45-1.74-.45-2.7 0-1 .15-1.93.47-2.8.32-.85.76-1.6 1.32-2.26.56-.65 1.24-1.16 2.03-1.53.8-.37 1.67-.56 2.62-.56 1.06 0 2 .24 2.8.73.82.48 1.5 1.13 2.02 1.94V13.7h3.1v13.2c0 1-.2 1.92-.6 2.73-.38.8-.9 1.5-1.6 2.06-.67.56-1.48 1-2.42 1.3-.94.3-1.96.44-3.07.44-1.52 0-2.8-.25-3.82-.76-1.02-.5-1.9-1.2-2.64-2.12l1.92-1.88c.53.65 1.2 1.16 2 1.53.8.38 1.65.57 2.55.57.54 0 1.07-.08 1.57-.23.5-.15.94-.38 1.33-.7.4-.3.7-.72.9-1.2.23-.5.34-1.08.34-1.75v-1.76c-.46.8-1.1 1.4-1.93 1.84-.82.43-1.7.65-2.66.65zm1.2-2.83c.37 0 .74-.06 1.1-.18.35-.13.67-.3.97-.5.3-.22.57-.46.8-.75.22-.28.4-.58.52-.9v-3.3c-.3-.8-.8-1.46-1.5-1.95-.67-.5-1.38-.74-2.12-.74-.54 0-1.03.12-1.47.36-.44.24-.82.55-1.14.95-.32.4-.56.84-.73 1.35-.15.5-.24 1.04-.24 1.58 0 .57.1 1.1.3 1.6.2.48.46.9.8 1.28s.74.67 1.2.88c.46.22.96.32 1.5.32z"/><g><g><path d="M29.97 28.02c-5.28 5.68-11.54 3.96-13.83 3.24 12.04-6.23 14.22-18.9 14.22-18.9S20.26 28.83 6.53 31.37c-1.1.2-1.9-2.42-.6-2.7 3.86-.87 6.97-2.54 6.97-2.54-.56-3.56-.83-9.58 2.96-13C20.9 8.62 29.4 11 35.23 4.23c1.36-1.58 1.9 16.1-5.26 23.8z"/></g></g></g></g></svg>